<svg width="583" height="100" viewBox="0 0 583 100" fill="none" xmlns="http://www.w3.org/2000/svg">
<path d="M147.578 1.25698C157.82 1.25698 166.805 3.25884 174.534 7.26257C182.355 11.2663 188.36 16.9925 192.55 24.4413C196.833 31.797 198.975 40.3631 198.975 50.1397C198.975 59.9162 196.833 68.4823 192.55 75.838C188.36 83.1005 182.355 88.7337 174.534 92.7374C166.805 96.7411 157.82 98.743 147.578 98.743H113.5V1.25698H147.578ZM146.88 82.1229C157.122 82.1229 165.036 79.3296 170.623 73.743C176.209 68.1564 179.003 60.2886 179.003 50.1397C179.003 39.9907 176.209 32.0763 170.623 26.3966C165.036 20.6238 157.122 17.7374 146.88 17.7374H133.053V82.1229H146.88Z" fill="white"/>
<path d="M278.555 58.3799C278.555 61.1732 278.369 63.6871 277.997 65.9218H221.433C221.898 71.5084 223.853 75.8845 227.298 79.0503C230.743 82.216 234.98 83.7989 240.008 83.7989C247.271 83.7989 252.438 80.6797 255.511 74.4413H276.6C274.365 81.8901 270.082 88.0354 263.751 92.8771C257.419 97.6257 249.645 100 240.427 100C232.978 100 226.274 98.3706 220.315 95.1117C214.449 91.7598 209.84 87.0577 206.488 81.0056C203.23 74.9534 201.6 67.9702 201.6 60.0559C201.6 52.0484 203.23 45.0186 206.488 38.9665C209.747 32.9143 214.31 28.2588 220.176 25C226.041 21.7412 232.792 20.1117 240.427 20.1117C247.783 20.1117 254.347 21.6946 260.12 24.8603C265.986 28.0261 270.501 32.5419 273.667 38.4078C276.926 44.1806 278.555 50.838 278.555 58.3799ZM258.304 52.7933C258.211 47.7654 256.395 43.7616 252.857 40.7821C249.319 37.7095 244.989 36.1732 239.868 36.1732C235.027 36.1732 230.93 37.6629 227.578 40.6425C224.319 43.5289 222.317 47.5791 221.572 52.7933H258.304Z" fill="white"/>
<path d="M281.096 49.8603C281.096 40.27 283.237 31.7039 287.52 24.162C291.896 16.527 297.809 10.6145 305.258 6.42458C312.799 2.14152 321.226 0 330.537 0C341.431 0 350.975 2.7933 359.168 8.37989C367.362 13.9665 373.088 21.6946 376.347 31.5642H353.861C351.626 26.9088 348.461 23.4171 344.364 21.0894C340.36 18.7616 335.705 17.5978 330.397 17.5978C324.718 17.5978 319.643 18.9479 315.174 21.648C310.798 24.2551 307.353 27.9795 304.839 32.8212C302.418 37.6629 301.207 43.3426 301.207 49.8603C301.207 56.2849 302.418 61.9646 304.839 66.8994C307.353 71.7411 310.798 75.5121 315.174 78.2123C319.643 80.8194 324.718 82.1229 330.397 82.1229C335.705 82.1229 340.36 80.959 344.364 78.6313C348.461 76.2104 351.626 72.6722 353.861 68.0168H376.347C373.088 77.9795 367.362 85.7542 359.168 91.3408C351.068 96.8343 341.524 99.581 330.537 99.581C321.226 99.581 312.799 97.486 305.258 93.2961C297.809 89.013 291.896 83.1006 287.52 75.5587C283.237 68.0168 281.096 59.4506 281.096 49.8603Z" fill="white"/>
<path d="M381.037 59.7765C381.037 51.9553 382.573 45.0186 385.646 38.9665C388.811 32.9143 393.048 28.2588 398.355 25C403.755 21.7412 409.761 20.1117 416.372 20.1117C422.145 20.1117 427.173 21.2756 431.456 23.6033C435.832 25.9311 439.323 28.8641 441.93 32.4022V21.3687H461.623V98.743H441.93V87.4302C439.417 91.0614 435.925 94.0875 431.456 96.5084C427.079 98.8361 422.005 100 416.232 100C409.714 100 403.755 98.324 398.355 94.9721C393.048 91.6201 388.811 86.9181 385.646 80.8659C382.573 74.7207 381.037 67.6909 381.037 59.7765ZM441.93 60.0559C441.93 55.3073 440.999 51.257 439.137 47.905C437.275 44.46 434.761 41.8529 431.595 40.0838C428.43 38.2216 425.031 37.2905 421.4 37.2905C417.768 37.2905 414.417 38.175 411.344 39.9441C408.271 41.7132 405.757 44.3203 403.802 47.7654C401.94 51.1173 401.009 55.121 401.009 59.7765C401.009 64.432 401.94 68.5289 403.802 72.067C405.757 75.5121 408.271 78.1657 411.344 80.0279C414.51 81.8901 417.862 82.8212 421.4 82.8212C425.031 82.8212 428.43 81.9367 431.595 80.1676C434.761 78.3054 437.275 75.6983 439.137 72.3464C440.999 68.9013 441.93 64.8045 441.93 60.0559Z" fill="white"/>
<path d="M503.346 100C497.014 100 491.335 98.8827 486.307 96.648C481.279 94.3203 477.275 91.2011 474.296 87.2905C471.409 83.3799 469.826 79.0503 469.547 74.3017H489.24C489.612 77.2812 491.055 79.7486 493.569 81.7039C496.176 83.6592 499.389 84.6369 503.206 84.6369C506.931 84.6369 509.817 83.892 511.865 82.4022C514.007 80.9125 515.078 79.0037 515.078 76.676C515.078 74.162 513.774 72.2998 511.167 71.0894C508.653 69.7858 504.603 68.3892 499.016 66.8994C493.243 65.5028 488.495 64.0596 484.77 62.5698C481.139 61.0801 477.973 58.7989 475.273 55.7262C472.666 52.6536 471.363 48.5102 471.363 43.2961C471.363 39.013 472.573 35.1024 474.994 31.5642C477.508 28.0261 481.046 25.2328 485.608 23.1844C490.264 21.1359 495.711 20.1117 501.949 20.1117C511.167 20.1117 518.523 22.4395 524.016 27.095C529.51 31.6573 532.536 37.8492 533.095 45.6704H514.379C514.1 42.5978 512.797 40.1769 510.469 38.4078C508.234 36.5456 505.208 35.6145 501.391 35.6145C497.852 35.6145 495.106 36.2663 493.15 37.5698C491.288 38.8734 490.357 40.689 490.357 43.0168C490.357 45.6238 491.661 47.6257 494.268 49.0223C496.875 50.3259 500.925 51.676 506.419 53.0726C512.005 54.4693 516.614 55.9125 520.245 57.4022C523.877 58.892 526.996 61.2197 529.603 64.3855C532.303 67.4581 533.7 71.5549 533.793 76.676C533.793 81.1452 532.536 85.149 530.022 88.6871C527.601 92.2253 524.063 95.0186 519.407 97.067C514.845 99.0223 509.491 100 503.346 100Z" fill="white"/>
<path d="M565.626 37.4302V74.8603C565.626 77.4674 566.231 79.3762 567.441 80.5866C568.745 81.7039 570.886 82.2626 573.866 82.2626H582.944V98.743H570.653C554.173 98.743 545.933 90.7356 545.933 74.7207V37.4302H536.715V21.3687H545.933V2.23463H565.626V21.3687H582.944V37.4302H565.626Z" fill="white"/>
<g clip-path="url(#clip0_2949_14183)">
<rect width="100" height="100" fill="white"/>
<rect x="99.75" width="100" height="100" transform="rotate(90 99.75 0)" fill="#921005"/>
<path d="M100.007 -1.19249e-06C86.8746 -1.03589e-06 73.871 2.58658 61.7385 7.61204C49.6059 12.6375 38.582 20.0035 29.2962 29.2893C20.0103 38.5752 12.6444 49.5991 7.61888 61.7317C2.59341 73.8642 0.00683401 86.8678 0.00683475 100L100.007 100L100.007 -1.19249e-06Z" fill="#E42212"/>
<path d="M100.142 49.9457C93.5651 49.9457 87.0527 51.2411 80.9766 53.7579C74.9004 56.2747 69.3795 59.9637 64.729 64.6142C60.0785 69.2647 56.3896 74.7856 53.8728 80.8617C51.3559 86.9379 50.0605 93.4502 50.0605 100.027L100.142 100.027L100.142 49.9457Z" fill="#FF7A70"/>
</g>
<defs>
<clipPath id="clip0_2949_14183">
<rect width="100" height="100" fill="white"/>
</clipPath>
</defs>
</svg>
